<?xml version="1.0"?><svg xmlns="http://www.w3.org/2000/svg" xmlns:xlink="http://www.w3.org/1999/xlink" version="1.1" viewBox="0 0 512 512" style="enable-background:new 0 0 512 512;" xml:space="preserve"><g id="_x30_9_x2C__American_Football_x2C__Rugby_x2C__Sports_and_Competition_x2C__Rugby_Ball_x2C__Rugby_Game"><g><path d="M501.009,48.035c-4.337-18.521-18.537-32.72-37.057-37.057c-124.992-29.27-258.777,6.526-352.62,100.367    C17.396,205.283-18.276,339.087,10.965,463.964c4.337,18.52,18.537,32.72,37.057,37.057    c125.019,29.277,258.797-6.546,352.62-100.367C493.305,307.99,530.686,174.777,501.009,48.035z M52.565,481.627    c-11.097-2.599-19.606-11.108-22.205-22.205c-8.206-35.046-11.013-69.609-9.108-103.025l134.225,134.226    C121.496,492.571,86.885,489.663,52.565,481.627z M255.048,470.293L41.671,256.916C77.744,157.39,157.31,77.742,256.871,41.651    l213.41,213.41C434.605,354.091,355.266,434.189,255.048,470.293z M490.61,155.491L356.363,21.244    c33.407-1.897,67.975,0.917,103.046,9.129c11.097,2.599,19.606,11.108,22.205,22.205    C489.651,86.898,492.559,121.509,490.61,155.491z"/><path d="M248.944,212.266c-3.89,3.89-3.89,10.196,0,14.086l11.302,11.302l-22.605,22.605l-11.302-11.302    c-3.891-3.889-10.195-3.889-14.086,0c-3.89,3.89-3.89,10.196,0,14.086l11.302,11.302l-22.605,22.605l-11.303-11.303    c-3.891-3.889-10.195-3.889-14.086,0c-3.89,3.89-3.89,10.196,0,14.086l11.303,11.303l-15.889,15.889    c-3.89,3.89-3.89,10.196,0,14.086c3.891,3.889,10.194,3.89,14.086,0l15.889-15.889l11.303,11.303    c3.891,3.889,10.194,3.89,14.086,0c3.89-3.89,3.89-10.196,0-14.086l-11.303-11.303l22.605-22.605l11.302,11.302    c3.891,3.889,10.194,3.89,14.086,0c3.89-3.89,3.89-10.196,0-14.086l-11.302-11.302l22.605-22.605l11.302,11.302    c3.891,3.889,10.194,3.89,14.086,0c3.89-3.89,3.89-10.196,0-14.086l-11.302-11.302l22.605-22.605l11.303,11.303    c3.891,3.889,10.194,3.89,14.086,0c3.89-3.89,3.89-10.196,0-14.086l-11.303-11.303l15.889-15.889c3.89-3.89,3.89-10.196,0-14.086    c-3.891-3.889-10.195-3.889-14.086,0l-15.889,15.889l-11.303-11.303c-3.891-3.889-10.195-3.889-14.086,0    c-3.89,3.89-3.89,10.196,0,14.086l11.303,11.303l-22.605,22.605l-11.302-11.302C259.14,208.377,252.835,208.377,248.944,212.266z"/></g></g><g id="Layer_1"/></svg>